<svg width="96" height="33" viewBox="0 0 96 33" fill="none" xmlns="http://www.w3.org/2000/svg">
<rect width="96" height="5" fill="black"/>
<path d="M8.37891 12.2109L3.28125 27H0.199219L6.62109 9.9375H8.58984L8.37891 12.2109ZM12.6445 27L7.53516 12.2109L7.3125 9.9375H9.29297L15.7383 27H12.6445ZM12.3984 20.6719V23.0039H3.11719V20.6719H12.3984ZM17.6484 9.9375H23.6836C24.9805 9.9375 26.0859 10.1328 27 10.5234C27.9141 10.9141 28.6133 11.4922 29.0977 12.2578C29.5898 13.0156 29.8359 13.9531 29.8359 15.0703C29.8359 15.9219 29.6797 16.6719 29.3672 17.3203C29.0547 17.9687 28.6133 18.5156 28.043 18.9609C27.4727 19.3984 26.793 19.7383 26.0039 19.9805L25.1133 20.4141H19.6875L19.6641 18.082H23.7305C24.4336 18.082 25.0195 17.957 25.4883 17.707C25.957 17.457 26.3086 17.1172 26.543 16.6875C26.7852 16.25 26.9062 15.7578 26.9062 15.2109C26.9062 14.6172 26.7891 14.1016 26.5547 13.6641C26.3281 13.2187 25.9766 12.8789 25.5 12.6445C25.0234 12.4023 24.418 12.2812 23.6836 12.2812H20.5898V27H17.6484V9.9375ZM27.3867 27L23.3789 19.3359L26.4609 19.3242L30.5273 26.8477V27H27.3867ZM38.2969 14.3203V16.3828H31.1484V14.3203H38.2969ZM33.2109 11.2148H36.0352V23.4961C36.0352 23.8867 36.0898 24.1875 36.1992 24.3984C36.3164 24.6016 36.4766 24.7383 36.6797 24.8086C36.8828 24.8789 37.1211 24.9141 37.3945 24.9141C37.5898 24.9141 37.7773 24.9023 37.957 24.8789C38.1367 24.8555 38.2812 24.832 38.3906 24.8086L38.4023 26.9648C38.168 27.0352 37.8945 27.0977 37.582 27.1523C37.2773 27.207 36.9258 27.2344 36.5273 27.2344C35.8789 27.2344 35.3047 27.1211 34.8047 26.8945C34.3047 26.6602 33.9141 26.2812 33.6328 25.7578C33.3516 25.2344 33.2109 24.5391 33.2109 23.6719V11.2148ZM47.5898 23.5664C47.5898 23.2852 47.5195 23.0312 47.3789 22.8047C47.2383 22.5703 46.9687 22.3594 46.5703 22.1719C46.1797 21.9844 45.6016 21.8125 44.8359 21.6562C44.1641 21.5078 43.5469 21.332 42.9844 21.1289C42.4297 20.918 41.9531 20.6641 41.5547 20.3672C41.1562 20.0703 40.8477 19.7187 40.6289 19.3125C40.4102 18.9062 40.3008 18.4375 40.3008 17.9062C40.3008 17.3906 40.4141 16.9023 40.6406 16.4414C40.8672 15.9805 41.1914 15.5742 41.6133 15.2227C42.0352 14.8711 42.5469 14.5937 43.1484 14.3906C43.7578 14.1875 44.4375 14.0859 45.1875 14.0859C46.25 14.0859 47.1602 14.2656 47.918 14.625C48.6836 14.9766 49.2695 15.457 49.6758 16.0664C50.082 16.668 50.2852 17.3477 50.2852 18.1055H47.4609C47.4609 17.7695 47.375 17.457 47.2031 17.168C47.0391 16.8711 46.7891 16.6328 46.4531 16.4531C46.1172 16.2656 45.6953 16.1719 45.1875 16.1719C44.7031 16.1719 44.3008 16.25 43.9805 16.4062C43.668 16.5547 43.4336 16.75 43.2773 16.9922C43.1289 17.2344 43.0547 17.5 43.0547 17.7891C43.0547 18 43.0937 18.1914 43.1719 18.3633C43.2578 18.5273 43.3984 18.6797 43.5937 18.8203C43.7891 18.9531 44.0547 19.0781 44.3906 19.1953C44.7344 19.3125 45.1641 19.4258 45.6797 19.5352C46.6484 19.7383 47.4805 20 48.1758 20.3203C48.8789 20.6328 49.418 21.0391 49.793 21.5391C50.168 22.0312 50.3555 22.6562 50.3555 23.4141C50.3555 23.9766 50.2344 24.4922 49.9922 24.9609C49.7578 25.4219 49.4141 25.8242 48.9609 26.168C48.5078 26.5039 47.9648 26.7656 47.332 26.9531C46.707 27.1406 46.0039 27.2344 45.2227 27.2344C44.0742 27.2344 43.1016 27.0312 42.3047 26.625C41.5078 26.2109 40.9023 25.6836 40.4883 25.043C40.082 24.3945 39.8789 23.7227 39.8789 23.0273H42.6094C42.6406 23.5508 42.7852 23.9687 43.043 24.2812C43.3086 24.5859 43.6367 24.8086 44.0273 24.9492C44.4258 25.082 44.8359 25.1484 45.2578 25.1484C45.7656 25.1484 46.1914 25.082 46.5352 24.9492C46.8789 24.8086 47.1406 24.6211 47.3203 24.3867C47.5 24.1445 47.5898 23.8711 47.5898 23.5664ZM64.3828 17.0625V19.3945H55.3242V17.0625H64.3828ZM56.0508 9.9375V27H53.1094V9.9375H56.0508ZM66.6445 9.9375V27H63.7148V9.9375H66.6445ZM77.4961 24.0117V14.3203H80.332V27H77.6602L77.4961 24.0117ZM77.8945 21.375L78.8437 21.3516C78.8437 22.2031 78.75 22.9883 78.5625 23.707C78.375 24.418 78.0859 25.0391 77.6953 25.5703C77.3047 26.0937 76.8047 26.5039 76.1953 26.8008C75.5859 27.0898 74.8555 27.2344 74.0039 27.2344C73.3867 27.2344 72.8203 27.1445 72.3047 26.9648C71.7891 26.7852 71.3437 26.5078 70.9687 26.1328C70.6016 25.7578 70.3164 25.2695 70.1133 24.668C69.9102 24.0664 69.8086 23.3477 69.8086 22.5117V14.3203H72.6328V22.5352C72.6328 22.9961 72.6875 23.3828 72.7969 23.6953C72.9062 24 73.0547 24.2461 73.2422 24.4336C73.4297 24.6211 73.6484 24.7539 73.8984 24.832C74.1484 24.9102 74.4141 24.9492 74.6953 24.9492C75.5 24.9492 76.1328 24.793 76.5937 24.4805C77.0625 24.1602 77.3945 23.7305 77.5898 23.1914C77.793 22.6523 77.8945 22.0469 77.8945 21.375ZM83.2383 9H86.0625V24.293L85.793 27H83.2383V9ZM94.3359 20.543V20.7891C94.3359 21.7266 94.2305 22.5898 94.0195 23.3789C93.8164 24.1602 93.5039 24.8398 93.082 25.418C92.668 25.9961 92.1523 26.4453 91.5352 26.7656C90.9258 27.0781 90.2187 27.2344 89.4141 27.2344C88.625 27.2344 87.9375 27.0859 87.3516 26.7891C86.7656 26.4922 86.2734 26.0703 85.875 25.5234C85.4844 24.9766 85.168 24.3242 84.9258 23.5664C84.6836 22.8086 84.5117 21.9727 84.4102 21.0586V20.2734C84.5117 19.3516 84.6836 18.5156 84.9258 17.7656C85.168 17.0078 85.4844 16.3555 85.875 15.8086C86.2734 15.2539 86.7617 14.8281 87.3398 14.5312C87.9258 14.2344 88.6094 14.0859 89.3906 14.0859C90.2031 14.0859 90.918 14.2422 91.5352 14.5547C92.1602 14.8672 92.6797 15.3125 93.0937 15.8906C93.5078 16.4609 93.8164 17.1406 94.0195 17.9297C94.2305 18.7187 94.3359 19.5898 94.3359 20.543ZM91.5117 20.7891V20.543C91.5117 19.9727 91.4648 19.4375 91.3711 18.9375C91.2773 18.4297 91.1211 17.9844 90.9023 17.6016C90.6914 17.2187 90.4023 16.918 90.0352 16.6992C89.6758 16.4727 89.2266 16.3594 88.6875 16.3594C88.1875 16.3594 87.7578 16.4453 87.3984 16.6172C87.0391 16.7891 86.7383 17.0234 86.4961 17.3203C86.2539 17.6172 86.0625 17.9609 85.9219 18.3516C85.7891 18.7422 85.6992 19.1641 85.6523 19.6172V21.7383C85.7227 22.3242 85.8711 22.8633 86.0977 23.3555C86.332 23.8398 86.6602 24.2305 87.082 24.5273C87.5039 24.8164 88.0469 24.9609 88.7109 24.9609C89.2344 24.9609 89.6758 24.8555 90.0352 24.6445C90.3945 24.4336 90.6797 24.1406 90.8906 23.7656C91.1094 23.3828 91.2656 22.9375 91.3594 22.4297C91.4609 21.9219 91.5117 21.375 91.5117 20.7891Z" fill="black"/>
</svg>
